<?xml version="1.0" encoding="UTF-8" standalone="no"?>
<svg
   xmlns:dc="http://purl.org/dc/elements/1.1/"
   xmlns:cc="http://creativecommons.org/ns#"
   xmlns:rdf="http://www.w3.org/1999/02/22-rdf-syntax-ns#"
   xmlns:svg="http://www.w3.org/2000/svg"
   xmlns="http://www.w3.org/2000/svg"
   xmlns:xlink="http://www.w3.org/1999/xlink"
   xmlns:sodipodi="http://sodipodi.sourceforge.net/DTD/sodipodi-0.dtd"
   xmlns:inkscape="http://www.inkscape.org/namespaces/inkscape"
   viewBox="0 0 1440 162"
   version="1.1"
   id="svg4"
   sodipodi:docname="awan.svg"
   inkscape:version="1.0.1 (3bc2e813f5, 2020-09-07)"
   width="1440"
   height="162">
  <metadata
     id="metadata10">
    <rdf:RDF>
      <cc:Work
         rdf:about="">
        <dc:format>image/svg+xml</dc:format>
        <dc:type
           rdf:resource="http://purl.org/dc/dcmitype/StillImage" />
        <dc:title></dc:title>
      </cc:Work>
    </rdf:RDF>
  </metadata>
  <defs
     id="defs8">
    <linearGradient
       inkscape:collect="always"
       id="linearGradient839">
      <stop
         style="stop-color:#f9f9f9;stop-opacity:1"
         offset="0"
         id="stop835" />
      <stop
         style="stop-color:#fbfbfb;stop-opacity:0.50588235;"
         offset="0.80000007"
         id="stop849" />
      <stop
         style="stop-color:#ffffff;stop-opacity:0"
         offset="1"
         id="stop837" />
    </linearGradient>
    <linearGradient
       inkscape:collect="always"
       xlink:href="#linearGradient839"
       id="linearGradient841"
       x1="251.76973"
       y1="181.15138"
       x2="251.76973"
       y2="325.4584"
       gradientUnits="userSpaceOnUse"
       gradientTransform="translate(0,-158)" />
  </defs>
  <sodipodi:namedview
     pagecolor="#ffffff"
     bordercolor="#666666"
     borderopacity="1"
     objecttolerance="10"
     gridtolerance="10"
     guidetolerance="10"
     inkscape:pageopacity="0"
     inkscape:pageshadow="2"
     inkscape:window-width="1920"
     inkscape:window-height="1046"
     id="namedview6"
     showgrid="false"
     inkscape:zoom="0.48854167"
     inkscape:cx="869.01757"
     inkscape:cy="401.13207"
     inkscape:window-x="-11"
     inkscape:window-y="-11"
     inkscape:window-maximized="1"
     inkscape:current-layer="layer1" />
  <rect
     style="opacity:0;fill:#f9f9f9;stroke-width:37.4173;stroke-linecap:round;stroke-linejoin:round"
     id="rect843"
     width="1256.8018"
     height="214.92537"
     x="-10.234542"
     y="-12.28145" />
  <g
     inkscape:groupmode="layer"
     id="layer1"
     inkscape:label="Layer 1">
    <path
       fill="#63c900"
       fill-opacity="1"
       d="m 0,98.000003 48,-26.7 C 96,45.000003 192,-8.9999974 288,2.0000026 384,13.000003 480,87.000003 576,103.3 672,119 768,77.000003 864,66.000003 c 96,-11 192,11 288,26.7 C 1248,109 1344,119 1392,124.7 l 48,5.3 v 32 h -48 c -48,0 -144,0 -240,0 -96,0 -192,0 -288,0 -96,0 -192,0 -288,0 -96,0 -192,0 -288,0 -96,0 -192,0 -240,0 H 0 Z"
       id="path2"
       style="fill:url(#linearGradient841);fill-opacity:1" />
  </g>
</svg>
